Coordinates
version=1
nRows=17
nColumns=40
inDegrees=yes

Units are S.I. units (second, meters, Newtons, ...)
Angles are in degrees.

endheader
time	pelvis_tilt	pelvis_list	pelvis_rotation	pelvis_tx	pelvis_ty	pelvis_tz	hip_flexion_r	hip_adduction_r	hip_rotation_r	knee_angle_r	knee_angle_r_beta	ankle_angle_r	subtalar_angle_r	mtp_angle_r	hip_flexion_l	hip_adduction_l	hip_rotation_l	knee_angle_l	knee_angle_l_beta	ankle_angle_l	subtalar_angle_l	mtp_angle_l	lumbar_extension	lumbar_bending	lumbar_rotation	arm_flex_r	arm_add_r	arm_rot_r	elbow_flex_r	pro_sup_r	wrist_flex_r	wrist_dev_r	arm_flex_l	arm_add_l	arm_rot_l	elbow_flex_l	pro_sup_l	wrist_flex_l	wrist_dev_l
     11.02114286	     -2.79382265	     -2.28124918	     -3.30238997	      1.06733131	      0.93563367	      0.43367599	     32.58264747	     -8.69954553	     -7.41980280	     63.04351317	     63.04351317	      2.36058589	    -13.77400955	      0.52307386	      7.00731513	     -2.41080922	    -11.29945370	     16.29371959	     16.29371959	     15.05630231	     -2.75157027	     -3.77692542	     -9.25430018	      4.79466644	      1.36211330	     -2.27339327	    -12.21411530	     -5.94963597	     44.29409033	     46.24087462	      0.00000000	      0.00000000	     18.71791675	    -15.12302201	      7.54923294	     37.27743299	     45.85652345	      0.00000000	      0.00000000
     11.03228571	     -2.70249224	     -2.11643297	     -3.54401464	      1.06651786	      0.93552849	      0.43387944	     33.10132574	     -8.60189344	     -7.41565386	     60.51408537	     60.51408537	      2.25978176	    -13.47346573	      0.56260358	      5.74875268	     -2.07354862	    -11.56024862	     15.18452042	     15.18452042	     14.90319075	     -2.59544926	     -4.67389745	     -9.32934408	      4.61883445	      1.24033463	     -1.85074191	    -11.76358810	     -6.49581977	     36.68842498	     46.52813420	      0.00000000	      0.00000000	     19.69946864	    -15.69041500	      6.64657989	     38.93076117	     45.98395861	      0.00000000	      0.00000000
     11.04342857	     -2.59923339	     -2.00017744	     -3.73490890	      1.06574208	      0.93526986	      0.43418848	     33.43059646	     -8.40757009	     -7.45327395	     57.63540115	     57.63540115	      2.22122785	    -13.28105677	      0.80956773	      4.53695794	     -1.80396672	    -11.79068687	     14.21758158	     14.21758158	     15.08228171	     -2.26529056	     -4.85458849	     -9.54409776	      4.57048118	      1.65897444	     -3.55877909	    -11.78764665	     -6.64318104	     34.34200259	     46.60542470	      0.00000000	      0.00000000	     21.02831129	    -15.94189393	      6.07223998	     40.48096574	     46.07390679	      0.00000000	      0.00000000
     11.05457143	     -2.62262413	     -1.94968477	     -3.88074217	      1.06499529	      0.93467380	      0.43459323	     33.66815057	     -8.14162730	     -7.62016557	     54.35729774	     54.35729774	      1.98538988	    -13.09547353	      0.25436040	      3.45714467	     -1.60099726	    -11.85705874	     13.20228267	     13.20228267	     14.91968077	     -2.19864830	     -5.87703294	     -9.52731832	      4.58536769	      1.12943654	     -3.45913539	    -11.41733705	     -7.90096665	     28.73717706	     46.87668045	      0.00000000	      0.00000000	     21.28514417	    -16.67684262	      4.52780679	     43.11978402	     46.25873487	      0.00000000	      0.00000000
     11.06571429	     -2.61680538	     -1.90137521	     -4.02269166	      1.06430911	      0.93397259	      0.43509985	     33.73415669	     -7.83481178	     -7.79589789	     50.84656289	     50.84656289	      2.08377167	    -12.67486487	      0.54775171	      2.42057982	     -1.43584739	    -12.02973155	     12.38582160	     12.38582160	     15.19971946	     -1.83230808	     -5.99259856	     -9.62062608	      4.64062890	      1.49536621	     -5.32107681	    -11.55460966	     -8.04946296	     27.31040349	     46.92651992	      0.00000000	      0.00000000	     22.49879180	    -16.88196447	      4.08343491	     44.46068478	     46.32756526	      0.00000000	      0.00000000
     11.07685714	     -2.64577537	     -1.84558641	     -4.14960369	      1.06374736	      0.93305481	      0.43572357	     33.66019067	     -7.51407466	     -8.04360788	     47.07311112	     47.07311112	      2.18869014	    -12.09163952	      0.76902286	      1.42939661	     -1.27403613	    -12.21295081	     11.59539950	     11.59539950	     15.45549567	     -1.44929008	     -6.21698577	     -9.63243795	      4.66982329	      1.77195488	     -7.04610840	    -11.66236449	     -8.23263844	     25.74973488	     46.98951801	      0.00000000	      0.00000000	     23.51696834	    -17.10207531	      3.59232633	     46.03320917	     46.39966984	      0.00000000	      0.00000000
     11.08800000	     -2.67850365	     -1.71268620	     -4.28212953	      1.06335887	      0.93186596	      0.43649197	     33.40386159	     -7.20899573	     -8.26763886	     43.01418161	     43.01418161	      1.77992105	    -11.61105790	     -0.64480904	      0.38235255	     -1.01481023	    -12.38348477	     10.65712680	     10.65712680	     15.32460120	     -1.21770471	     -7.35708148	     -9.63665710	      4.55623555	      1.12287895	     -7.19228606	    -11.46444028	    -10.04409895	     21.82195961	     47.31222090	      0.00000000	      0.00000000	     22.90719449	    -17.96985969	      1.41705642	     50.47305444	     46.63679420	      0.00000000	      0.00000000
     11.09914286	     -2.84527333	     -1.66542014	     -4.34047739	      1.06300426	      0.93038978	      0.43730075	     33.13254989	     -6.79245497	     -8.60575441	     38.89899530	     38.89899530	      2.03051863	    -10.64410419	     -0.15191825	     -0.30857458	     -0.91523988	    -12.44603073	     10.17709715	     10.17709715	     15.68563262	     -0.99577994	     -7.49123907	     -9.44990462	      4.65623788	      1.20205907	     -8.89870023	    -11.59353678	    -10.18524260	     21.02765455	     47.34397578	      0.00000000	      0.00000000	     23.85816852	    -18.31712161	      1.06651708	     51.48279726	     46.68728478	      0.00000000	      0.00000000
     11.11028571	     -2.84618286	     -1.63844711	     -4.45002775	      1.06296384	      0.92897944	      0.43839487	     32.52700045	     -6.31810934	     -9.01214400	     34.73476494	     34.73476494	      2.17854094	     -9.36092914	      0.40941149	     -1.25995723	     -0.83048968	    -12.59273652	      9.60707708	      9.60707708	     16.08850422	     -0.66728280	     -7.68312355	     -9.42349988	      4.61420619	      1.52630180	    -10.68762256	    -11.73554699	    -10.37310780	     20.19276682	     47.38290396	      0.00000000	      0.00000000	     24.71993985	    -18.42790578	      0.63627997	     53.09979488	     46.75102489	      0.00000000	      0.00000000
     11.12142857	     -2.70611673	     -1.44095934	     -4.56328244	      1.06327306	      0.92743558	      0.43948727	     31.78203238	     -6.05621677	     -9.44844915	     30.91016701	     30.91016701	      2.55424926	     -7.57845168	      1.01530280	     -2.44062172	     -0.54326608	    -12.94191935	      8.90072127	      8.90072127	     16.42211458	      0.03650006	     -8.00539246	     -9.64570462	      4.40467045	      1.92112435	    -12.48945242	    -11.78888258	    -11.08395099	     19.56356350	     47.47046885	      0.00000000	      0.00000000	     24.83985001	    -18.55048871	     -0.45412143	     56.92365705	     46.89182489	      0.00000000	      0.00000000
     11.13257143	     -2.77208740	     -1.39465799	     -4.58816732	      1.06360249	      0.92553249	      0.44073981	     31.20191208	     -5.59302663	     -9.91189522	     27.39801446	     27.39801446	      3.13959572	     -5.85608252	      3.14277769	     -3.13863369	     -0.51423803	    -13.06867749	      8.72502363	      8.72502363	     17.00881882	      0.39783273	     -8.06947219	     -9.53156356	      4.40213124	      1.21124232	    -13.34820600	    -11.89224550	    -13.45729024	     18.68472909	     47.75967935	      0.00000000	      0.00000000	     24.07747033	    -19.12823610	     -2.69867594	     60.81698278	     47.12842597	      0.00000000	      0.00000000
     11.14371429	     -2.71090219	     -1.37945610	     -4.58880584	      1.06421706	      0.92360972	      0.44217470	     30.41794834	     -5.09433194	    -10.39132527	     24.19990988	     24.19990988	      3.24966835	     -4.42268507	      3.93519608	     -3.95743684	     -0.51868401	    -13.07369383	      8.60999440	      8.60999440	     17.55699415	      0.51502634	     -8.22048417	     -9.50283003	      4.41790133	      1.45028659	    -15.03141917	    -12.00188810	    -13.68941835	     18.33392176	     47.78125555	      0.00000000	      0.00000000	     24.63952473	    -19.28572327	     -2.95414416	     62.41545997	     47.17805841	      0.00000000	      0.00000000
     11.15485714	     -2.64186660	     -1.32543403	     -4.61680236	      1.06496760	      0.92160718	      0.44379558	     29.78610588	     -4.69451618	    -10.89935616	     21.77068555	     21.77068555	      3.39072174	     -2.78987080	      4.95827999	     -4.76819571	     -0.50783426	    -13.18970015	      8.56430317	      8.56430317	     18.20888164	      0.83275101	     -8.15259678	     -9.53953352	      4.35021540	      1.69398315	    -16.79656422	    -12.02888671	    -14.10965964	     18.60512282	     47.78853568	      0.00000000	      0.00000000	     24.79736909	    -19.42584490	     -3.45165948	     65.16823353	     47.25991391	      0.00000000	      0.00000000
     11.16600000	     -2.67743510	     -1.29458729	     -4.60382247	      1.06584126	      0.91944117	      0.44556402	     29.41470240	     -4.31038159	    -11.32246579	     20.13896679	     20.13896679	      3.59495514	     -1.60223153	      6.13645418	     -5.34186773	     -0.59458030	    -13.36788268	      8.79522798	      8.79522798	     19.14109154	      1.31811464	     -7.55497182	     -9.43496023	      4.30454719	      1.45955067	    -18.40478513	    -12.12893571	    -14.81752779	     19.68801626	     47.77771109	      0.00000000	      0.00000000	     24.19989253	    -19.81587712	     -4.45904809	     68.72955342	     47.39215167	      0.00000000	      0.00000000
     11.17714286	     -2.71154811	     -1.30374726	     -4.57370424	      1.06679274	      0.91733403	      0.44755730	     29.14389663	     -3.89141547	    -11.45700645	     19.16568841	     19.16568841	      3.43004980	     -1.16250623	      6.38015038	     -5.90881738	     -0.72008951	    -13.25554306	      9.00977886	      9.00977886	     19.69596653	      1.22640057	     -7.57781477	     -9.20375066	      4.31345383	      1.51235025	    -19.60170219	    -12.21163796	    -14.91843725	     19.39508829	     47.78572507	      0.00000000	      0.00000000	     24.60508817	    -20.03514263	     -4.78674369	     69.63221556	     47.43476670	      0.00000000	      0.00000000
     11.18828571	     -2.67662659	     -1.48458869	     -4.55332048	      1.06797228	      0.91551065	      0.44981954	     28.75325716	     -3.36385337	    -11.71007173	     18.62030705	     18.62030705	      2.90688936	     -0.86830607	      5.39392990	     -6.39722206	     -1.14074837	    -13.54508134	      9.68888704	      9.68888704	     21.09165657	      1.88715928	     -5.97803371	     -9.21751738	      4.46315782	      1.31128985	    -20.92269468	    -12.29158320	    -15.54588611	     20.72601416	     47.73706905	      0.00000000	      0.00000000	     23.62383189	    -20.10127456	     -6.26441762	     73.65540166	     47.61490843	      0.00000000	      0.00000000
     11.19942857	     -2.67767323	     -1.63088877	     -4.51923316	      1.06914686	      0.91375914	      0.45220700	     28.63725340	     -2.94667754	    -11.71413285	     18.91111780	     18.91111780	      2.60651142	     -1.08141582	      4.74590655	     -6.86989294	     -1.49005147	    -13.45450759	     10.22123468	     10.22123468	     21.71503597	      1.74038846	     -5.69235434	     -9.08521490	      4.58395889	      1.70950847	    -21.97826805	    -12.23358664	    -15.61757529	     20.51998059	     47.73184405	      0.00000000	      0.00000000	     23.83686494	    -19.81034266	     -6.64400009	     75.23088593	     47.67421563	      0.00000000	      0.00000000
